#!OML:ASF G:\ViconDB\ViconDB\414\test\team2\shane.ASF
:FULLY-SPECIFIED
:DEGREES
210
root 1.18604 16.8509 5.6624 -9.37248 2.54725 -2.95318
lowerback 9.69876 -0.153792 -1.5988
upperback 3.10115 -0.296071 2.02038
thorax -2.19549 -0.153314 3.02826
lowerneck -14.105 -2.35616 -8.02107
upperneck 17.2139 -3.312 9.47209
head 7.92772 -1.1985 4.13101
rclavicle 1.25172e-015 1.20265e-014
rhumerus -37.3932 12.6395 -92.4983
rradius 31.9319
rwrist 32.2638
rhand -28.903 -13.067
rfingers 7.12502
rthumb -2.25803 -43.0347
lclavicle 1.25172e-015 1.20265e-014
lhumerus -29.0316 -10.6249 92.5156
lradius 14.9222
lwrist -26.7783
lhand -36.9228 8.04913
lfingers 7.12502
lthumb -10.0002 37.7916
rfemur -4.12213 -16.1429 12.2783
rtibia 61.1007
rfoot -15.0321 3.68653
rtoes -16.0227
lfemur 8.61416 11.9306 -12.7748
ltibia 21.2203
lfoot -24.638 -21.4582
ltoes -4.15801
211
root 1.18579 16.8391 5.83609 -9.39238 3.11138 -3.09917
lowerback 9.28575 -0.0678453 -0.613603
upperback 3.53844 -0.103545 1.6459
thorax -1.53228 -0.0624364 2.05631
lowerneck -14.3818 -2.83309 -8.31057
upperneck 16.8705 -4.00012 10.1541
head 7.95196 -1.47487 4.32785
rclavicle -3.8707e-015 -3.24035e-015
rhumerus -37.395 10.2177 -91.6679
rradius 31.2422
rwrist 31.5674
rhand -29.0374 -13.1991
rfingers 7.12502
rthumb -2.38782 -43.1655
lclavicle -3.8707e-015 -3.24035e-015
lhumerus -27.3293 -14.3742 93.3917
lradius 15.6361
lwrist -25.0319
lhand -36.6699 8.10088
lfingers 7.12502
lthumb -9.75613 37.8549
rfemur -5.51958 -16.5823 12.8916
rtibia 60.0382
rfoot -15.941 3.53775
rtoes -16.1406
lfemur 9.36663 11.1362 -12.6524
ltibia 20.8172
lfoot -24.6595 -21.3169
ltoes -4.35118
212
root 1.18766 16.8268 6.01252 -9.44011 3.49402 -3.36847
lowerback 9.38434 -0.253094 -0.48721
upperback 3.65651 -0.335769 1.79572
thorax -1.45461 -0.179613 2.16465
lowerneck -14.6139 -2.84611 -8.52468
upperneck 16.9069 -3.97177 10.2383
head 8.00888 -1.46107 4.39699
rclavicle -2.27205e-015 -7.45443e-017
rhumerus -37.9433 9.35397 -90.7202
rradius 30.6122
rwrist 32.3144
rhand -28.9025 -13.6499
rfingers 7.12502
rthumb -2.25752 -43.6177
lclavicle -2.27205e-015 -7.45443e-017
lhumerus -25.7673 -14.5046 93.63
lradius 15.8255
lwrist -25.6826
lhand -37.0001 7.96339
lfingers 7.12502
lthumb -10.0748 37.7022
rfemur -6.8872 -17.0093 13.6608
rtibia 58.7089
rfoot -16.6237 3.1817
rtoes -15.2606
lfemur 10.228 10.2737 -12.4518
ltibia 20.3521
lfoot -24.8998 -20.7733
ltoes -4.38954
213
root 1.18598 16.8153 6.1963 -9.48923 3.87361 -3.34404
lowerback 9.37091 -0.379169 -0.666166
upperback 3.81173 -0.520053 1.81138
thorax -1.27688 -0.275313 2.29976
lowerneck -14.7603 -2.80609 -8.48551
upperneck 16.8704 -3.91413 10.2486
head 8.01664 -1.42653 4.39975
rclavicle 2.94294e-016 1.51325e-014
rhumerus -38.3586 7.64005 -89.5557
rradius 29.8359
rwrist 33.2451
rhand -28.7856 -13.3416
rfingers 7.12502
rthumb -2.14464 -43.3106
lclavicle 2.94294e-016 1.51325e-014
lhumerus -24.5941 -16.0971 94.0986
lradius 16.5055
lwrist -24.9325
lhand -37.1675 8.02948
lfingers 7.12502
lthumb -10.2362 37.7604
rfemur -8.09565 -17.2205 14.124
rtibia 57.1157
rfoot -17.4796 2.7689
rtoes -15.0455
lfemur 11.2391 10.2591 -12.279
ltibia 19.7168
lfoot -25.1222 -21.1023
ltoes -4.81615
214
root 1.18391 16.808 6.37883 -9.41919 4.31065 -3.49278
lowerback 9.32194 -0.595748 -0.746411
upperback 3.87314 -0.813587 1.89393
thorax -1.17053 -0.424546 2.45915
lowerneck -14.8982 -2.67306 -8.61063
upperneck 16.8943 -3.73348 10.4555
head 8.03674 -1.32556 4.51403
rclavicle -1.15373e-014 2.29099e-014
rhumerus -38.9938 7.29373 -88.9181
rradius 29.1669
rwrist 33.5091
rhand -28.694 -13.434
rfingers 7.12502
rthumb -2.05619 -43.4038
lclavicle -1.15373e-014 2.29099e-014
lhumerus -23.5607 -17.8424 94.644
lradius 17.4601
lwrist -23.1359
lhand -36.9563 8.29257
lfingers 7.12502
lthumb -10.0324 38.0334
rfemur -9.37095 -17.7588 14.7718
rtibia 55.2602
rfoot -18.1238 2.19616
rtoes -15.8696
lfemur 12.1013 9.85433 -12.0552
ltibia 18.9867
lfoot -25.2693 -21.1915
ltoes -4.92743
215
root 1.18239 16.8036 6.56441 -9.37518 4.6125 -3.53281
lowerback 9.24455 -0.753547 -0.911927
upperback 3.95946 -1.03644 1.99553
thorax -1.02251 -0.540358 2.67771
lowerneck -14.9304 -2.69174 -8.49693
upperneck 16.7369 -3.70055 10.0965
head 7.97808 -1.33685 4.3714
rclavicle -6.75868e-015 -1.49089e-016
rhumerus -39.4577 5.46215 -87.4214
rradius 28.4386
rwrist 35.2816
rhand -28.5298 -13.15
rfingers 7.12502
rthumb -1.89761 -43.1213
lclavicle -6.75868e-015 -1.49089e-016
lhumerus -22.3403 -18.1483 94.8134
lradius 18.0015
lwrist -23.2079
lhand -37.3963 8.26127
lfingers 7.12502
lthumb -10.457 37.9812
rfemur -10.4966 -17.9833 15.3387
rtibia 53.1513
rfoot -18.7516 1.62069
rtoes -16.0255
lfemur 13.1682 9.75516 -11.8336
ltibia 17.9954
lfoot -25.2715 -21.461
ltoes -5.09744
216
root 1.17727 16.7984 6.74867 -9.3273 5.02912 -3.81298
lowerback 9.31268 -0.964676 -0.900632
upperback 3.93092 -1.3126 2.1381
thorax -1.07125 -0.67868 2.84825
lowerneck -14.8896 -2.61864 -8.67548
upperneck 16.7499 -3.60089 10.2955
head 7.97144 -1.2833 4.48201
rclavicle 1.16972e-014 1.5207e-014
rhumerus -40.0975 4.55288 -86.4139
rradius 27.7003
rwrist 36.2025
rhand -28.4338 -13.3005
rfingers 7.12502
rthumb -1.80492 -43.2726
lclavicle 1.16972e-014 1.5207e-014
lhumerus -21.4161 -18.7638 94.9944
lradius 18.6926
lwrist -23.0606
lhand -37.6606 7.83839
lfingers 7.12502
lthumb -10.7119 37.5453
rfemur -11.5585 -18.5714 16.1466
rtibia 50.7925
rfoot -19.2148 1.1911
rtoes -16.7786
lfemur 14.1753 9.15064 -11.4994
ltibia 16.8803
lfoot -25.0079 -21.4426
ltoes -5.37509
217
root 1.17026 16.8009 6.93242 -9.12648 5.35935 -3.9361
lowerback 9.30363 -1.19781 -1.03079
upperback 3.86629 -1.63159 2.20122
thorax -1.10934 -0.839006 3.01936
lowerneck -14.8311 -2.46154 -8.63018
upperneck 16.6135 -3.409 10.3987
head 7.89666 -1.18194 4.52869
rclavicle 3.87133e-014 1.14301e-015
rhumerus -40.7221 3.33321 -85.2749
rradius 27.0366
rwrist 37.6769
rhand -28.1568 -13.2424
rfingers 7.12502
rthumb -1.53733 -43.2166
lclavicle 3.87133e-014 1.14301e-015
lhumerus -20.6018 -19.6486 95.1316
lradius 19.5919
lwrist -21.7689
lhand -38.1704 7.52763
lfingers 7.12502
lthumb -11.2037 37.2085
rfemur -12.6943 -18.4719 16.9005
rtibia 48.2025
rfoot -19.6107 0.761278
rtoes -15.1649
lfemur 15.171 8.82561 -11.2668
ltibia 15.5638
lfoot -24.617 -21.5445
ltoes -5.45294
218
root 1.16643 16.7878 7.12825 -9.13894 5.54559 -3.9962
lowerback 9.37601 -1.301 -1.18249
upperback 3.85306 -1.77878 2.34614
thorax -1.14395 -0.914615 3.27253
lowerneck -14.8607 -2.49724 -9.08725
upperneck 16.6976 -3.3809 10.5287
head 7.93635 -1.18467 4.65655
rclavicle 5.26158e-015 1.08338e-014
rhumerus -41.2881 1.03017 -83.3189
rradius 26.2984
rwrist 39.5727
rhand -28.0506 -12.6905
rfingers 7.12502
rthumb -1.43476 -42.6654
lclavicle 5.26158e-015 1.08338e-014
lhumerus -19.7959 -19.8947 95.3685
lradius 20.282
lwrist -22.089
lhand -38.5348 7.27582
lfingers 7.12502
lthumb -11.5551 36.9373
rfemur -13.4672 -18.5233 17.4528
rtibia 45.4675
rfoot -19.7515 0.518784
rtoes -16.2908
lfemur 16.636 8.59287 -11.0667
ltibia 13.971
lfoot -24.3685 -21.4289
ltoes -6.0755
219
root 1.15782 16.7827 7.32199 -8.928 5.87459 -4.08298
lowerback 9.30888 -1.45467 -1.38018
upperback 3.76016 -1.9964 2.48435
thorax -1.17651 -1.0249 3.54894
lowerneck -14.7622 -2.37264 -8.87092
upperneck 16.5562 -3.1976 10.231
head 7.84385 -1.11477 4.53464
rclavicle 3.72597e-014 -1.78906e-014
rhumerus -41.9611 0.182647 -82.0546
rradius 25.7282
rwrist 40.3452
rhand -27.9154 -12.7819
rfingers 7.12502
rthumb -1.30424 -42.7577
lclavicle 3.72597e-014 -1.78906e-014
lhumerus -19.197 -21.147 95.6348
lradius 21.4176
lwrist -21.5215
lhand -38.7018 7.568
lfingers 7.12502
lthumb -11.7161 37.2204
rfemur -14.4288 -18.7956 18.0896
rtibia 42.6067
rfoot -19.7885 0.450727
rtoes -16.6302
lfemur 17.9896 8.38564 -10.7999
ltibia 11.9288
lfoot -23.6255 -21.6491
ltoes -6.41242
